<svg xmlns="http://www.w3.org/2000/svg" width="256" height="256" viewBox="0 0 100 100"><rect width="100" height="100" rx="20" fill="#ffffff"></rect><path d="M28.58 59.18L28.58 59.18Q28.58 48.07 33.56 41.47Q38.55 34.88 47.21 34.88L47.21 34.88Q54.15 34.88 58.68 40.07L58.68 40.07L58.68 15.81L71.42 15.81L71.42 83.31L59.95 83.31L59.34 78.26Q54.59 84.19 47.12 84.19L47.12 84.19Q38.73 84.19 33.65 77.58Q28.58 70.96 28.58 59.18ZM41.28 60.11L41.28 60.11Q41.28 66.79 43.61 70.35Q45.94 73.91 50.37 73.91L50.37 73.91Q56.26 73.91 58.68 68.94L58.68 68.94L58.68 50.18Q56.31 45.21 50.46 45.21L50.46 45.21Q41.28 45.21 41.28 60.11Z" fill="#1e2426"></path></svg>